<svg id="Capa_1" enable-background="new 0 0 512 512" height="512" viewBox="0 0 512 512" width="512" xmlns="http://www.w3.org/2000/svg"><g><path d="m484.574 181.429c-6.756-20.92-3.876-52.323-21.436-76.57-17.698-24.438-48.479-31.384-65.86-44.096-17.198-12.578-33.198-39.949-62.127-49.389-28.113-9.174-56.861 3.275-79.151 3.275-22.287 0-51.033-12.452-79.151-3.276-28.924 9.438-44.937 36.815-62.124 49.387-17.362 12.697-48.166 19.662-65.861 44.096-17.545 24.227-14.694 55.702-21.438 76.572-6.418 19.863-27.426 43.702-27.426 74.574 0 30.891 20.984 54.638 27.426 74.573 6.756 20.92 3.876 52.323 21.436 76.57 17.697 24.439 48.477 31.384 65.86 44.097 17.195 12.576 33.198 39.949 62.127 49.388 28.094 9.168 56.887-3.275 79.151-3.275 22.233 0 51.093 12.43 79.151 3.276 28.925-9.438 44.928-36.809 62.124-49.387 17.362-12.697 48.166-19.662 65.861-44.096 17.546-24.228 14.693-55.7 21.438-76.572 6.418-19.864 27.426-43.703 27.426-74.574 0-30.889-20.979-54.629-27.426-74.573zm-38.061 136.847c-7.875 24.375-5.812 51.654-15.772 65.408-10.094 13.937-36.613 20.303-57.076 35.271-20.239 14.801-34.424 38.264-50.922 43.647-15.608 5.094-41.044-5.249-66.742-5.249-25.886 0-51.06 10.365-66.743 5.249-16.496-5.383-30.661-28.83-50.922-43.648-20.342-14.877-47.012-21.374-57.077-35.272-9.928-13.708-7.943-41.176-15.77-65.405-7.672-23.739-25.489-44.294-25.489-62.275 0-17.999 17.801-38.483 25.487-62.274 7.875-24.374 5.812-51.655 15.772-65.408 10.088-13.928 36.627-20.315 57.077-35.271 20.303-14.849 34.399-38.256 50.92-43.647 15.595-5.088 41.114 5.249 66.743 5.249 25.933 0 51.044-10.372 66.743-5.249 16.494 5.382 30.671 28.838 50.923 43.648 20.339 14.877 47.011 21.374 57.076 35.271 9.93 13.711 7.934 41.151 15.77 65.405v.001c7.672 23.739 25.489 44.294 25.489 62.275 0 17.999-17.801 38.483-25.487 62.274zm-98.37-126.469c7.811 7.811 7.811 20.474 0 28.284l-100.106 100.106c-7.811 7.811-20.475 7.81-28.285 0l-55.894-55.894c-7.811-7.811-7.812-20.474-.001-28.284s20.476-7.811 28.284 0l41.753 41.752 85.963-85.963c7.811-7.811 20.475-7.811 28.286-.001z"/></g></svg>