<?xml version="1.0" encoding="utf-8"?>
<!-- Generator: Adobe Illustrator 21.1.0, SVG Export Plug-In . SVG Version: 6.00 Build 0)  -->
<svg version="1.1" id="Layer_1" xmlns="http://www.w3.org/2000/svg" xmlns:xlink="http://www.w3.org/1999/xlink" x="0px" y="0px"
	 viewBox="0 0 512 512" style="enable-background:new 0 0 512 512;" xml:space="preserve">
<path d="M256,502c-65.8,0-127.6-25.6-174-72c-46.4-46.4-72-108.2-72-174c0-65.6,25.5-127.3,71.7-173.7
	C127.9,35.9,189.5,10.2,255.1,10l0.8,0c65.5,0,127.3,26,174,73.1c46.5,47,72.1,109.1,72.1,174.7c0,91.3-74.2,165.5-165.5,165.5h-1.8
	c-42.6,0-79.3-30.4-87.1-72.2l-1.3-6.7l-6.7-1.3c-41.9-7.9-72.2-44.5-72.2-87.1v-78.7c0-5.5,4.5-10,10-10h29.3V98.7
	c0-5.5,4.5-10,10-10s10,4.5,10,10v68.7h58.7V98.7c0-5.5,4.5-10,10-10s10,4.5,10,10v68.7h29.3c5.5,0,10,4.5,10,10V256
	c0,20.4-6.7,39.5-19.5,55.4c-12.4,15.4-29.7,26.4-48.8,30.9l-10.4,2.5l3.2,10.2c9,28.9,35.3,48.3,65.6,48.3h1.8
	c80.2,0,145.5-65.3,145.5-145.5C482,132.2,380.7,30,256.1,30l-0.9,0C131,30.5,30,131.8,30,256c0,124.6,101.4,226,226,226
	c5.5,0,10,4.5,10,10S261.5,502,256,502z M187.3,256c0,37.9,30.8,68.7,68.7,68.7c37.9,0,68.7-30.8,68.7-68.7v-68.7H187.3V256z"/>
</svg>
