<svg height="512pt" viewBox="0 -44 512 511" width="512pt" xmlns="http://www.w3.org/2000/svg"><path d="m212 40.601562h-212v-40h212zm-40 40h-172v40h172zm-40 80h-132v40h132zm380 223h-83.441406c-8.253906 23.277344-30.484375 40-56.558594 40s-48.304688-16.722656-56.558594-40h-123.882812c-8.253906 23.277344-30.484375 40-56.558594 40s-48.304688-16.722656-56.558594-40h-18.441406c-33.085938 0-60-26.917968-60-60v-83h40v83c0 11.027344 8.972656 20 20 20h18.441406c8.253906-23.28125 30.484375-40 56.558594-40s48.304688 16.71875 56.558594 40h120.441406v-283.101562c0-11.027344-8.972656-20-20-20h-40v-40h40c33.085938 0 60 26.914062 60 60v40.101562h40.074219c18.714843 0 36.621093 8.917969 47.894531 23.855469l55.886719 74.050781c10.410156 13.792969 16.144531 30.910157 16.144531 48.191407zm-160-243v75h106.640625l-50.601563-67.050781c-3.757812-4.980469-9.726562-7.949219-15.964843-7.949219zm-197 223c0-11.03125-8.972656-20-20-20s-20 8.96875-20 20c0 11.027344 8.972656 20 20 20s20-8.972656 20-20zm237 0c0-11.03125-8.972656-20-20-20s-20 8.96875-20 20c0 11.027344 8.972656 20 20 20s20-8.972656 20-20zm80-20v-88h-120v51.4375c6.261719-2.21875 12.988281-3.4375 20-3.4375 26.074219 0 48.304688 16.71875 56.558594 40zm0 0"/></svg>